<svg width="402" height="248" viewBox="0 0 402 248" fill="none" xmlns="http://www.w3.org/2000/svg">
<g clip-path="url(#clip0_1080_658)">
<path d="M0 8.7637C0 4.12307 3.76198 0.361084 8.40261 0.361084H394.597C399.238 0.361084 403 4.12306 403 8.7637V247.361H0V8.7637Z" fill="url(#paint0_linear_1080_658)"/>
<path fill-rule="evenodd" clip-rule="evenodd" d="M642.545 250.698L586.536 215.095H480.77L519.48 249.601L518.695 250.698H642.545ZM545.538 185.211L587.452 211.854H688.13L634.961 185.211H545.538ZM540.439 181.969L501.808 157.413L579.489 157.413L628.493 181.969H540.439ZM465.045 134.044L496.708 154.171L573.02 154.171L532.855 134.044L465.045 134.044ZM459.946 130.803L435.242 115.1L495.049 115.1L526.386 130.803L459.946 130.803ZM405.431 96.1497L430.143 111.858L488.58 111.858L457.233 96.1497L405.431 96.1497ZM400.331 92.9082L375.627 77.2049L419.427 77.2049L450.764 92.9082L400.331 92.9082ZM345.816 58.255L370.528 73.9634L412.958 73.9634L381.611 58.255L345.816 58.255ZM340.717 55.0135L339.491 54.2347L339.094 55.0135L-174.163 55.0136L-174.167 54.9938L-174.238 55.0136L-309.246 55.0136L-309.289 54.6598L-310.98 55.0136L-684.135 55.0137V55.5115L-834.741 73.9635H-837.948V74.3564L-989.369 92.9084H-991.422V93.1598L-1144.04 111.858H-1147.23V112.249L-1298.67 130.803H-1301.05V131.095L-1489.4 154.172H-1492.69V154.574L-1716.29 181.969H-1717.16V182.076L-1960.21 211.854H-1965.69V212.526L-2277.26 250.698H-2277.45V250.722L-2277.51 250.729L-2277.45 251.503V253.94H-2277.28L-2277.28 253.962L-2277.09 253.94H-2150.15L-2150.13 254.171L-2148.34 253.94H-2023.03L-2023 254.343L-2020.04 253.94H-1769.21L-1769.19 254.206L-1767.45 253.94H-1642.08L-1642.04 254.384L-1639.33 253.94H-1387.7L-1387.7 253.944L-1387.67 253.94H-1247.32L-1247.29 254.17L-1246.19 253.94H-1136.63L-1136.53 254.696L-1133.16 253.94H-1008.03L-1007.92 254.667L-1004.99 253.94H-879.488L-879.405 254.453L-877.561 253.94H-625.724L-625.713 253.995L-625.559 253.94H-498.706L-498.519 254.503L-497.159 253.94H-370.028L-369.665 254.839L-367.874 253.94H-242.903L-242.472 254.77L-241.188 253.94H-115.421L-115.038 254.466L-114.457 253.94H897.758L898.767 254.36L898.869 253.94H1025.1L1025.66 254.141L1025.71 253.94H1151.3L1152.42 254.287L1152.48 253.94H1278.14L1279.42 254.292L1279.47 253.94H1405.86L1406.4 254.072L1406.42 253.94H1531.76L1533.73 254.384L1533.79 253.94H1660.67L1660.99 254.006L1661 253.94H1787.08L1788.14 254.141L1788.16 253.94H1915.39L1915.45 253.951L1915.45 253.94H2551.6L2552.03 253.997L2552.03 253.94H2678.91L2679.27 253.985L2679.27 253.94H2679.51V250.766L2679.51 250.753L2679.51 250.698H2679.08L2376.38 212.536V211.854H2370.97L2135.03 182.107V181.969H2133.93L1728.16 130.811V130.803H1728.09L1127.06 55.0272V55.0134H1126.95L1125.9 54.8809L1125.89 55.0134L1080.33 55.0134L1079.41 54.8915L1079.4 55.0134L987.39 55.0135L986.455 54.8866L986.445 55.0135L940.606 55.0135L939.977 54.9228L939.969 55.0135L894.609 55.0135L893.523 54.8473L893.508 55.0135L848.18 55.0135L847.045 54.828L847.028 55.0135L801.239 55.0135L800.565 54.8951L800.553 55.0135L754.639 55.0135L754.102 54.9117L754.091 55.0135L707.919 55.0135L707.629 54.954L707.622 55.0135L661.725 55.0135L661.176 54.8902L661.16 55.0135L615.284 55.0135L614.715 54.8727L614.695 55.0135L568.761 55.0135L568.265 54.8766L568.243 55.0135L522.241 55.0135L521.802 54.877L521.777 55.0135L475.717 55.0135L475.369 54.8898L475.344 55.0135L428.533 55.0135L428.472 54.9881L428.466 55.0135L382.354 55.0135L381.574 54.6227L381.417 55.0135L340.717 55.0135ZM427.989 58.255L388.823 58.255L420.17 73.9634L465.699 73.9634L427.989 58.255ZM436.315 58.255L474.025 73.9634L519.388 73.9633L475.249 58.255L436.315 58.255ZM521.83 58.255L484.825 58.255L528.964 73.9633L572.36 73.9633L521.83 58.255ZM532.668 58.255L583.198 73.9633L625.37 73.9633L568.396 58.255L532.668 58.255ZM580.518 58.255L637.492 73.9633L678.446 73.9633L614.956 58.255L580.518 58.255ZM628.386 58.255L691.875 73.9633L731.291 73.9633L661.426 58.255L628.386 58.255ZM676.142 58.255L746.007 73.9633L784.148 73.9633L707.646 58.255L676.142 58.255ZM723.706 58.255L800.208 73.9633L837.285 73.9633L754.387 58.255L723.706 58.255ZM771.746 58.255L854.644 73.9633L890.461 73.9633L801.005 58.255L771.746 58.255ZM819.699 58.255L909.154 73.9633L944.026 73.9633L847.962 58.255L819.699 58.255ZM868.003 58.255L964.067 73.9633L997.07 73.9633L894.405 58.255L868.003 58.255ZM915.794 58.255L1018.46 73.9633L1049.39 73.9633L940.414 58.255L915.794 58.255ZM963.094 58.255L1072.07 73.9633L1102.94 73.9633L987.209 58.255L963.094 58.255ZM1011.27 58.255L1127 73.9633L1198.27 73.9633L1080.15 58.255L1011.27 58.255ZM1104.7 58.255L1222.82 73.9633L1251.38 73.9633L1126.78 58.2549L1104.7 58.255ZM-682.312 58.2552L-682.291 58.5472L-808.12 73.9635L-781.142 73.9635L-659.609 58.2552L-682.312 58.2552ZM-634.37 58.2551L-634.37 58.2568L-755.891 73.9635L-726.732 73.9635L-611.765 58.2551L-634.37 58.2551ZM-587.863 58.2551V58.2557L-702.826 73.9635L-672.932 73.9635L-564.048 58.2551L-587.863 58.2551ZM-541.387 58.2551L-650.271 73.9635L-618.326 73.9635L-516.172 58.2551L-541.387 58.2551ZM-494.887 58.2551L-597.041 73.9635L-563.948 73.9635L-468.348 58.2551L-494.887 58.2551ZM-448.401 58.2551L-544.002 73.9635L-509.957 73.9635L-420.585 58.2551L-448.401 58.2551ZM-401.909 58.2551L-491.281 73.9635L-455.631 73.9635L-372.769 58.2551L-401.909 58.2551ZM-355.417 58.2551L-438.28 73.9635L-401.572 73.9635L-326.476 58.2551L-355.417 58.2551ZM-310.702 58.2551L-385.797 73.9635L-346.051 73.9634L-276.066 58.2551L-310.702 58.2551ZM-262.368 58.2551L-262.339 58.4824L-331.311 73.9634L-291.387 73.9634L-227.932 58.2551L-262.368 58.2551ZM-215.861 58.2551L-215.815 58.5782L-277.964 73.9634L-242.382 73.9634L-185.894 58.2551L-215.861 58.2551ZM-173.87 58.2551L-230.358 73.9634L-187.988 73.9634L-137.686 58.2551L-173.87 58.2551ZM-126.894 58.2551L-177.196 73.9634L-133.17 73.9634L-89.3643 58.2551L-126.894 58.2551ZM-80.3906 58.2551L-80.3533 58.4344L-123.659 73.9634L-71.1033 73.9634L-33.1797 58.2551L-80.3906 58.2551ZM-25.8682 58.2551L-25.7305 58.6691L-62.6545 73.9634L-16.5632 73.9634L14.7275 58.2551L-25.8682 58.2551ZM20.1418 58.2551L20.4424 59.001L-9.36279 73.9634L31.2817 73.9634L55.5815 58.2551L20.1418 58.2551ZM60.2517 58.2551L60.5718 58.8716L37.2256 73.9634L79.1868 73.9634L96.5068 58.2551L60.2517 58.2551ZM100.524 58.2551L100.834 58.6809L83.9841 73.9634L127.005 73.9634L137.335 58.2551L100.524 58.2551ZM141.193 58.2551L130.863 73.9634L174.813 73.9634L178.154 58.2551L141.193 58.2551ZM181.464 58.2551L178.123 73.9634L222.643 73.9634L218.994 58.2551L181.464 58.2551ZM222.317 58.2551L225.966 73.9634L269.678 73.9634L259.035 58.255L222.317 58.2551ZM262.929 58.255L273.571 73.9634L317.594 73.9634L299.971 58.255L262.929 58.255ZM304.814 58.255L339.801 58.255L364.512 73.9634L322.437 73.9634L304.814 58.255ZM457.976 92.9082L426.638 77.2049L473.481 77.2049L511.179 92.9082L457.976 92.9082ZM481.807 77.2049L528.496 77.2049L572.62 92.9082L519.505 92.9082L481.807 77.2049ZM582.196 92.9082L538.072 77.2049L582.787 77.2048L633.301 92.9082L582.196 92.9082ZM644.139 92.9082L593.625 77.2048L637.127 77.2048L694.083 92.9082L644.139 92.9082ZM706.204 92.9082L649.249 77.2048L691.547 77.2048L755.016 92.9082L706.204 92.9082ZM768.445 92.9082L704.976 77.2048L745.708 77.2048L815.551 92.9082L768.445 92.9082ZM830.266 92.9082L760.424 77.2048L799.935 77.2048L876.414 92.9081L830.266 92.9082ZM892.473 92.9081L815.995 77.2048L854.392 77.2048L937.263 92.9081L892.473 92.9081ZM954.622 92.9081L871.75 77.2048L908.921 77.2048L998.348 92.9081L954.622 92.9081ZM1017.04 92.9081L927.614 77.2048L963.849 77.2048L1059.88 92.9081L1017.04 92.9081ZM1079.92 92.9081L983.89 77.2048L1018.26 77.2048L1120.89 92.9081L1079.92 92.9081ZM1142.28 92.9081L1039.65 77.2048L1071.88 77.2048L1180.82 92.9081L1142.28 92.9081ZM1203.5 92.9081L1094.56 77.2048L1126.82 77.2048L1242.51 92.9081L1203.5 92.9081ZM1266.58 92.9081L1150.88 77.2048L1222.64 77.2048L1340.72 92.9081L1266.58 92.9081ZM1365.28 92.9081L1247.19 77.2048L1277.05 77.2048V77.2001L1401.64 92.9081L1365.28 92.9081ZM-962.749 92.9084L-834.577 77.205L-806.221 77.205L-927.716 92.9084L-962.749 92.9084ZM-902.464 92.9083L-780.97 77.205L-750.456 77.205L-865.386 92.9083L-902.464 92.9083ZM-841.48 92.9083L-726.55 77.205L-695.401 77.205L-804.25 92.9083L-841.48 92.9083ZM-781.589 92.9083L-672.74 77.205L-639.406 77.205L-741.527 92.9083L-781.589 92.9083ZM-720.242 92.9083L-618.121 77.205L-583.676 77.205L-679.246 92.9083L-720.242 92.9083ZM-659.3 92.9083L-563.729 77.205L-528.4 77.205L-617.743 92.9083L-659.3 92.9083ZM-599.067 92.9083L-509.723 77.205L-472.731 77.205L-555.567 92.9083L-599.067 92.9083ZM-538.216 92.9083L-455.379 77.205L-417.068 77.205L-492.139 92.9083L-538.216 92.9083ZM-476.365 92.9083L-401.293 77.205L-360.493 77.205L-430.456 92.9083L-476.365 92.9083ZM-415.716 92.9083L-345.753 77.205L-304.481 77.2049L-367.915 92.9083L-415.716 92.9083ZM-354.493 92.9083L-291.058 77.2049L-254.039 77.2049L-310.509 92.9083L-354.493 92.9083ZM-298.484 92.9083L-242.014 77.2049L-198.368 77.2049L-248.654 92.9083L-298.484 92.9083ZM-237.862 92.9083L-187.576 77.2049L-142.209 77.2049L-186.001 92.9083L-237.862 92.9083ZM-176.49 92.9083L-132.699 77.2049L-78.929 77.2049L-116.841 92.9083L-176.49 92.9083ZM-108.392 92.9083L-70.4802 77.2049L-23.0203 77.2049L-54.3013 92.9083L-108.392 92.9083ZM-47.1008 92.9083L-15.8198 77.2049L26.2673 77.2049L1.9751 92.9082L-47.1008 92.9083ZM7.91895 92.9082L32.2112 77.2049L75.6125 77.2049L58.2981 92.9082L7.91895 92.9082ZM63.0955 92.9082L80.4099 77.2049L124.873 77.2049L114.546 92.9082L63.0955 92.9082ZM118.405 92.9082L128.731 77.2049L174.124 77.2049L170.783 92.9082L118.405 92.9082ZM174.093 92.9082L177.433 77.2049L223.396 77.2049L227.044 92.9082L174.093 92.9082ZM230.368 92.9082L226.719 77.2049L271.874 77.2049L282.513 92.9082L230.368 92.9082ZM286.406 92.9082L275.767 77.2049L321.23 77.2049L338.847 92.9082L286.406 92.9082ZM343.691 92.9082L326.074 77.2049L369.612 77.2049L394.316 92.9082L343.691 92.9082ZM464.444 96.1497L518.96 96.1497L556.671 111.858L495.792 111.858L464.444 96.1497ZM527.287 96.1497L564.997 111.858L625.867 111.858L581.729 96.1497L527.287 96.1497ZM591.305 96.1497L635.443 111.858L694.259 111.858L643.729 96.1497L591.305 96.1497ZM654.566 96.1497L705.096 111.858L762.813 111.858L705.839 96.1497L654.566 96.1497ZM717.961 96.1497L774.935 111.858L831.606 111.858L768.117 96.1497L717.961 96.1497ZM781.546 96.1497L845.036 111.858L899.833 111.858L829.968 96.1497L781.546 96.1497ZM844.683 96.1497L914.548 111.858L968.703 111.858L892.2 96.1497L844.683 96.1497ZM908.26 96.1497L984.763 111.858L1037.27 111.858L954.37 96.1496L908.26 96.1497ZM971.728 96.1496L1054.63 111.858L1106.26 111.858L1016.81 96.1496L971.728 96.1496ZM1035.5 96.1496L1124.96 111.858L1175.77 111.858L1079.71 96.1496L1035.5 96.1496ZM1099.75 96.1496L1195.81 111.858L1244.74 111.858L1142.07 96.1496L1099.75 96.1496ZM1163.46 96.1496L1266.13 111.858L1312.29 111.858L1203.31 96.1496L1163.46 96.1496ZM1225.99 96.1496L1334.97 111.858L1382.13 111.858L1266.4 96.1496L1225.99 96.1496ZM1290.46 96.1496L1406.19 111.858L1483.22 111.858L1365.1 96.1496L1290.46 96.1496ZM1389.65 96.1496L1507.77 111.858L1551.95 111.858L1427.35 96.1496L1389.65 96.1496ZM-989.206 96.1499L-1117.42 111.858L-1074.33 111.858L-952.795 96.1499L-989.206 96.1499ZM-927.543 96.1499L-1049.08 111.858L-1004.08 111.858L-889.111 96.1499L-927.543 96.1499ZM-865.204 96.1499L-980.171 111.858L-935.603 111.858L-826.719 96.1498L-865.204 96.1499ZM-804.058 96.1498L-912.942 111.858L-864.761 111.858L-762.607 96.1498L-804.058 96.1498ZM-741.322 96.1498L-843.476 111.858L-794.574 111.858L-698.974 96.1498L-741.322 96.1498ZM-679.027 96.1498L-774.628 111.858L-725.558 111.858L-636.186 96.1498L-679.027 96.1498ZM-617.509 96.1498L-706.881 111.858L-655.53 111.858L-572.667 96.1498L-617.509 96.1498ZM-555.315 96.1498L-638.178 111.858L-582.731 111.858L-507.636 96.1498L-555.315 96.1498ZM-491.861 96.1498L-566.957 111.858L-514.884 111.858L-444.898 96.1498L-491.861 96.1498ZM-430.158 96.1498L-500.144 111.858L-444.464 111.858L-381.01 96.1498L-430.158 96.1498ZM-367.587 96.1498L-431.042 111.858L-378.653 111.858L-322.165 96.1498L-367.587 96.1498ZM-310.141 96.1498L-366.629 111.858L-309.337 111.858L-259.034 96.1498L-310.141 96.1498ZM-248.242 96.1498L-298.544 111.858L-238.847 111.858L-195.041 96.1498L-248.242 96.1498ZM-185.53 96.1498L-229.336 111.858L-162.59 111.858L-124.666 96.1498L-185.53 96.1498ZM-116.218 96.1498L-154.141 111.858L-92.0493 111.858L-60.7583 96.1498L-116.218 96.1498ZM-53.5579 96.1498L-84.8489 111.858L-27.3394 111.858L-3.03931 96.1498L-53.5579 96.1498ZM2.90454 96.1498L-21.3955 111.858L37.4041 111.858L54.7241 96.1497L2.90454 96.1498ZM59.5215 96.1497L42.2014 111.858L102.084 111.858L112.414 96.1497L59.5215 96.1497ZM116.273 96.1497L105.943 111.858L166.753 111.858L170.094 96.1497L116.273 96.1497ZM173.404 96.1497L170.062 111.858L231.447 111.858L227.798 96.1497L173.404 96.1497ZM231.121 96.1497L234.77 111.858L295.351 111.858L284.709 96.1497L231.121 96.1497ZM288.602 96.1497L299.245 111.858L360.107 111.858L342.484 96.1497L288.602 96.1497ZM347.327 96.1497L364.95 111.858L424.127 111.858L399.415 96.1497L347.327 96.1497ZM533.597 130.803L502.26 115.1L564.452 115.1L602.15 130.803L533.597 130.803ZM610.477 130.803L572.779 115.1L634.975 115.1L679.1 130.803L610.477 130.803ZM688.676 130.803L644.551 115.1L704.686 115.1L755.199 130.803L688.676 130.803ZM766.037 130.803L715.523 115.1L774.57 115.1L831.525 130.803L766.037 130.803ZM843.647 130.803L786.692 115.1L844.708 115.099L908.176 130.803L843.647 130.803ZM921.606 130.803L858.137 115.099L914.25 115.099L984.092 130.803L921.606 130.803ZM998.807 130.803L928.965 115.099L984.49 115.099L1060.97 130.803L998.807 130.803ZM1077.03 130.803L1000.55 115.099L1054.37 115.099L1137.25 130.803L1077.03 130.803ZM1154.6 130.803L1071.73 115.099L1124.72 115.099L1214.15 130.803L1154.6 130.803ZM1232.84 130.803L1143.42 115.099L1195.59 115.099L1291.63 130.803L1232.84 130.803ZM1311.67 130.803L1215.63 115.099L1265.92 115.099L1368.56 130.803L1311.67 130.803ZM1389.95 130.803L1287.31 115.099L1334.78 115.099L1443.72 130.803L1389.95 130.803ZM1466.4 130.803L1357.46 115.099L1406.01 115.099L1521.7 130.803L1466.4 130.803ZM1545.76 130.803L1430.07 115.099L1507.59 115.099L1625.67 130.803L1545.76 130.803ZM1650.22 130.803L1532.14 115.099L1577.6 115.099V115.091L1702.21 130.803L1650.22 130.803ZM-1272.05 130.803L-1143.88 115.1L-1099.41 115.1L-1220.9 130.803L-1272.05 130.803ZM-1195.65 130.803L-1074.16 115.1L-1027.8 115.1L-1142.73 130.803H-1195.65ZM-1118.83 130.803L-1003.9 115.1L-958.072 115.1L-1066.92 130.803L-1118.83 130.803ZM-1044.26 130.803L-935.411 115.1L-885.841 115.1L-987.962 130.803L-1044.26 130.803ZM-966.677 130.803L-864.556 115.1L-814.302 115.1L-909.872 130.803L-966.677 130.803ZM-889.925 130.803L-794.356 115.1L-744 115.1L-833.344 130.803L-889.925 130.803ZM-814.667 130.803L-725.324 115.1L-672.629 115.1L-755.465 130.803L-814.667 130.803ZM-738.114 130.803L-655.277 115.1L-598.227 115.1L-673.298 130.803L-738.114 130.803ZM-657.524 130.803L-582.453 115.1L-529.326 115.1L-599.289 130.803L-657.524 130.803ZM-584.549 130.803L-514.586 115.1L-457.558 115.1L-520.992 130.803L-584.549 130.803ZM-507.57 130.803L-444.136 115.1L-390.31 115.1L-446.78 130.803L-507.57 130.803ZM-434.755 130.803L-378.285 115.1L-319.717 115.1L-370.003 130.803L-434.755 130.803ZM-359.21 130.803L-308.924 115.1L-247.886 115.1L-291.678 130.803L-359.21 130.803ZM-282.167 130.803L-238.376 115.1L-170.416 115.1L-208.327 130.803L-282.167 130.803ZM-199.878 130.803L-161.967 115.1L-98.5066 115.1L-129.787 130.803L-199.878 130.803ZM-122.587 130.803L-91.3059 115.1L-32.3538 115.1L-56.646 130.803L-122.587 130.803ZM-50.7021 130.803L-26.4099 115.1L33.8301 115.1L16.5156 130.803L-50.7021 130.803ZM21.313 130.803L38.6274 115.1L99.9526 115.1L89.6257 130.803L21.313 130.803ZM93.4841 130.803L103.811 115.1L166.063 115.1L162.723 130.803L93.4841 130.803ZM166.033 130.803L169.373 115.1L232.2 115.1L235.848 130.803L166.033 130.803ZM239.172 130.803L235.523 115.1L297.547 115.1L308.186 130.803L239.172 130.803ZM312.08 130.803L301.441 115.1L363.743 115.1L381.36 130.803L312.08 130.803ZM386.204 130.803L368.587 115.1L429.227 115.1L453.93 130.803L386.204 130.803ZM540.066 134.044L580.231 154.171L658.25 154.171L609.932 134.044L540.066 134.044ZM688.208 134.044L618.258 134.044L666.576 154.171L744.762 154.171L688.208 134.044ZM697.784 134.044L754.338 154.171L830.371 154.171L765.626 134.044L697.784 134.044ZM776.464 134.044L841.208 154.171L916.282 154.171L843.282 134.044L776.464 134.044ZM855.404 134.044L928.404 154.171L1002.63 154.171L921.278 134.044L855.404 134.044ZM934.707 134.044L1016.06 154.171L1088.03 154.171L998.509 134.044L934.707 134.044ZM1013.22 134.044L1102.74 154.171L1174.78 154.171L1076.75 134.044L1013.22 134.044ZM1092.81 134.044L1190.84 154.171L1260.57 154.171L1154.35 134.044H1092.81ZM1171.71 134.044L1277.93 154.171L1347.23 154.171L1232.61 134.044L1171.71 134.044ZM1251.3 134.044L1365.92 154.171L1434.54 154.171L1311.45 134.044L1251.3 134.044ZM1331.49 134.044L1454.58 154.171L1521.29 154.171L1389.74 134.044L1331.49 134.044ZM1411.13 134.044L1542.68 154.171L1605.84 154.171L1466.21 134.044L1411.13 134.044ZM1488.89 134.044L1628.52 154.171L1693.87 154.171L1545.58 134.044L1488.89 134.044ZM1569.64 134.044L1717.93 154.171L1801.39 154.171L1650.05 134.044L1569.64 134.044ZM1674.6 134.044L1825.94 154.171L1887.57 154.171L1727.93 134.044L1674.6 134.044ZM-1298.5 134.045L-1462.78 154.172L-1401.7 154.172L-1245.98 134.045L-1298.5 134.045ZM-1220.73 134.045L-1376.45 154.172L-1313.76 154.172L-1166.46 134.044L-1220.73 134.045ZM-1142.55 134.044L-1289.86 154.172L-1228.9 154.172L-1089.39 134.044L-1142.55 134.044ZM-1066.73 134.044L-1206.24 154.172L-1139.93 154.172L-1009.04 134.044L-1066.73 134.044ZM-987.757 134.044L-1118.65 154.172L-1052.09 154.172L-929.6 134.044L-987.757 134.044ZM-909.653 134.044L-1032.15 154.172L-966.298 154.172L-851.786 134.044L-909.653 134.044ZM-833.11 134.044L-947.622 154.172L-878.737 154.172L-772.564 134.044L-833.11 134.044ZM-755.213 134.044L-861.385 154.172L-785.014 154.172L-688.795 134.044L-755.213 134.044ZM-673.02 134.044L-769.24 154.172L-703.403 154.172L-613.73 134.044L-673.02 134.044ZM-598.99 134.044L-688.663 154.172L-615.391 154.172L-534.087 134.044L-598.99 134.044ZM-520.664 134.044L-601.969 154.172L-530.814 154.172L-458.436 134.044L-520.664 134.044ZM-446.411 134.044L-518.79 154.172L-444.835 154.172L-380.383 134.044L-446.411 134.044ZM-369.59 134.044L-434.042 154.172L-356.846 154.171L-300.718 134.044L-369.59 134.044ZM-291.207 134.044L-347.335 154.171L-264.744 154.171L-216.153 134.044L-291.207 134.044ZM-207.704 134.044L-256.295 154.171L-176.337 154.171L-136.244 134.044L-207.704 134.044ZM-129.044 134.044L-169.137 154.171L-92.7959 154.171L-61.6604 134.044L-129.044 134.044ZM-55.7166 134.044L-86.8521 154.171L-9.25049 154.171L12.9417 134.044L-55.7166 134.044ZM17.739 134.044L-4.45312 154.171L74.2581 154.171L87.4941 134.044L17.739 134.044ZM91.3525 134.044L78.1165 154.171L157.753 154.171L162.034 134.044L91.3525 134.044ZM165.344 134.044L161.062 154.171L241.278 154.171L236.602 134.044L165.344 134.044ZM239.925 134.044L244.601 154.171L324.018 154.171L310.382 134.044L239.925 134.044ZM314.276 134.044L327.912 154.171L407.577 154.171L384.997 134.044L314.276 134.044ZM389.841 134.044L412.421 154.171L490.693 154.171L459.03 134.044L389.841 134.044ZM666.031 157.413L586.7 157.413L635.704 181.969H724.982L666.031 157.413ZM733.309 181.969L674.358 157.413L753.871 157.413L822.871 181.969H733.309ZM832.447 181.969L763.447 157.413L840.798 157.413L919.79 181.969H832.447ZM930.627 181.969L851.635 157.413L928.039 157.413L1017.1 181.969H930.627ZM1029.23 181.969L940.161 157.413L1015.73 157.413L1114.98 181.969H1029.23ZM1128.41 181.969L1029.16 157.413L1102.44 157.413L1211.66 181.969H1128.41ZM1226.38 181.969L1117.16 157.413L1190.56 157.413L1310.16 181.969H1226.38ZM1326.22 181.969L1206.62 157.413L1277.68 157.413L1407.27 181.969H1326.22ZM1424.63 181.969L1295.03 157.413L1365.69 157.413L1505.53 181.969H1424.63ZM1524.22 181.969L1384.38 157.413L1454.36 157.413L1604.53 181.969H1524.22ZM1624.58 181.969L1474.4 157.413L1542.47 157.413L1702.97 181.969H1624.58ZM1724.36 181.969L1563.86 157.413L1628.33 157.413L1798.69 181.969H1724.36ZM1821.37 181.969L1651.01 157.413L1717.75 157.413L1898.67 181.969H1821.37ZM1922.73 181.969L1741.81 157.413L1825.77 157.413L2010.42 181.969H1922.73ZM2034.97 181.969L1850.32 157.413L1913.28 157.413L2108.06 181.969H2034.97ZM-1689.67 181.969L-1489.24 157.413L-1426.78 157.413L-1616.77 181.969H-1689.67ZM-1591.52 181.969L-1401.53 157.413L-1337.49 157.413L-1517.21 181.969H-1591.52ZM-1493.3 181.969L-1313.58 157.413L-1251.37 157.413L-1421.58 181.969H-1493.3ZM-1398.92 181.969L-1228.71 157.413L-1161.01 157.413L-1320.7 181.969H-1398.92ZM-1299.42 181.969L-1139.73 157.413L-1071.82 157.413L-1221.27 181.969H-1299.42ZM-1201.32 181.969L-1051.87 157.413L-984.741 157.413L-1124.45 181.969H-1201.32ZM-1105.78 181.969L-966.064 157.413L-895.836 157.413L-1025.37 181.969H-1105.78ZM-1008.02 181.969L-878.485 157.413L-800.51 157.413L-917.904 181.969H-1008.02ZM-902.129 181.969L-784.736 157.413L-717.845 157.413L-827.25 181.969H-902.129ZM-812.51 181.969L-703.105 157.413L-628.485 157.413L-727.681 181.969H-812.51ZM-714.259 181.969L-615.063 157.413L-542.471 157.413L-630.776 181.969H-714.259ZM-618.751 181.969L-530.446 157.413L-455.215 157.413L-533.85 181.969H-618.751ZM-523.058 181.969L-444.423 157.413L-365.886 157.413L-434.366 181.969H-523.058ZM-424.855 181.969L-356.375 157.413L-272.57 157.413L-331.854 181.969H-424.855ZM-323.405 181.969L-264.121 157.413L-182.794 157.413L-231.71 181.969H-323.405ZM-224.51 181.969L-175.594 157.413L-97.8103 157.413L-135.798 181.969H-224.51ZM-129.854 181.969L-91.8665 157.413L-12.8245 157.413L-39.9001 181.969H-129.854ZM-35.1028 181.969L-8.0271 157.413L72.1262 157.413L55.9775 181.969H-35.1028ZM59.8359 181.969L75.9846 157.413L157.063 157.413L151.84 181.969H59.8359ZM155.15 181.969L160.373 157.413L242.031 157.413L247.736 181.969H155.15ZM251.059 181.969L245.354 157.413L326.214 157.413L342.851 181.969H251.059ZM346.744 181.969L330.108 157.413L411.214 157.413L438.763 181.969H346.744ZM443.606 181.969L416.057 157.413L495.792 157.413L534.424 181.969H443.606ZM642.173 185.211L695.341 211.854H796.724L732.764 185.211H642.173ZM741.091 185.211L805.051 211.854H906.843L831.979 185.211H741.091ZM841.555 185.211L916.419 211.854H1015.92L930.217 185.211H841.555ZM941.055 185.211L1026.76 211.854H1125.49L1028.86 185.211H941.055ZM1040.98 185.211L1137.62 211.854H1235.76L1128.08 185.211H1040.98ZM1141.51 185.211L1249.19 211.854H1344.58L1226.08 185.211H1141.51ZM1240.79 185.211L1359.29 211.854H1455.7L1325.95 185.211H1240.79ZM1342.01 185.211L1471.76 211.854H1564.98L1424.37 185.211H1342.01ZM1441.73 185.211L1582.34 211.854H1675.72L1523.99 185.211H1441.73ZM1542.68 185.211L1694.41 211.854H1787.29L1624.36 185.211H1542.68ZM1644.4 185.211L1807.33 211.854H1898.28L1724.15 185.211H1644.4ZM1745.54 185.211L1919.67 211.854H2006.02L1821.18 185.211H1745.54ZM1843.86 185.211L2028.7 211.854H2118.84L1922.55 185.211H1843.86ZM1946.61 185.211L2142.9 211.854H2235.14L2034.79 185.211H1946.61ZM2059.35 185.211L2259.69 211.854H2345.09L2133.77 185.211H2059.35ZM-1716.12 185.211L-1933.58 211.854H-1847.98L-1641.85 185.211H-1716.12ZM-1616.59 185.211L-1822.73 211.854H-1735.93L-1540.93 185.211H-1616.59ZM-1517.03 185.211L-1712.02 211.854H-1628.73L-1444.05 185.211H-1517.03ZM-1421.39 185.211L-1606.07 211.854H-1515.05L-1341.78 185.211H-1421.39ZM-1320.5 185.211L-1493.76 211.854H-1403.14L-1241 185.211H-1320.5ZM-1221.05 185.211L-1383.2 211.854H-1294.48L-1142.89 185.211H-1221.05ZM-1124.22 185.211L-1275.8 211.854H-1183.02L-1042.47 185.211H-1124.22ZM-1025.12 185.211L-1165.66 211.854H-1060.77L-933.4 185.211H-1025.12ZM-917.626 185.211L-1044.99 211.854H-960.394L-841.692 185.211H-917.626ZM-826.952 185.211L-945.654 211.854H-848.401L-740.775 185.211H-826.952ZM-727.353 185.211L-834.979 211.854H-738.242L-642.433 185.211H-727.353ZM-630.408 185.211L-726.217 211.854H-629.548L-544.23 185.211H-630.408ZM-533.438 185.211L-618.755 211.854H-517.705L-443.405 185.211H-533.438ZM-433.894 185.211L-508.194 211.854H-404.002L-339.68 185.211H-433.894ZM-331.231 185.211L-395.553 211.854H-291.24L-238.167 185.211H-331.231ZM-230.967 185.211L-284.039 211.854H-182.027L-140.812 185.211H-230.967ZM-134.868 185.211L-176.083 211.854H-72.8508L-43.4744 185.211H-134.868ZM-38.6768 185.211L-68.0532 211.854H36.325L53.8459 185.211H-38.6768ZM57.7043 185.211L40.1833 211.854H145.484L151.151 185.211H57.7043ZM154.46 185.211L148.793 211.854H254.679L248.489 185.211H154.46ZM251.812 185.211L258.002 211.854H363.097L345.047 185.211H251.812ZM348.94 185.211L366.991 211.854H472.289L442.399 185.211H348.94ZM447.243 185.211L477.133 211.854H581.437L539.523 185.211H447.243ZM694.598 215.095H592.552L646.319 249.273L645.592 250.698H765.647L694.598 215.095ZM772.11 250.323L701.81 215.095H804.506L889.976 250.698H771.959L772.11 250.323ZM898.302 250.698L812.833 215.095H915.951L1015.99 250.698H898.302ZM1025.57 250.698L925.527 215.095H1026.35L1140.87 250.698H1025.57ZM1151.71 250.698L1037.19 215.095H1137.25L1266.38 250.698H1151.71ZM1278.5 250.698L1149.37 215.095H1248.87L1392.76 250.698H1278.5ZM1406.19 250.698L1262.29 215.095H1358.99L1517.34 250.698H1406.19ZM1532.06 250.698L1373.71 215.095H1471.49L1644.88 250.698H1532.06ZM1660.94 250.698L1487.55 215.095H1582.08L1769.97 250.698H1660.94ZM1787.33 250.698L1599.44 215.095H1694.18L1896.93 250.698H1787.33ZM1915.62 250.698L1712.87 215.095H1807.12L2024.84 250.698H1915.62ZM2043.04 250.396L1827.16 215.095H1919.47L2152.16 250.698H2043.01L2043.04 250.396ZM2170.51 250.234L1940.86 215.095H2028.5L2275.5 250.698H2170.47L2170.51 250.234ZM2297.68 250.626L2051.18 215.095H2142.72L2405.02 250.698H2297.68L2297.68 250.626ZM2425.03 250.148L2166.78 215.095H2259.51L2527.23 250.698H2424.99L2425.03 250.148ZM2551.78 250.698L2284.06 215.095H2370.8L2653.2 250.698H2551.78ZM-2250.63 250.698L-1960.04 215.095H-1873.06L-2148.51 250.698H-2250.63ZM-2123.26 250.698L-1847.81 215.095H-1759.65L-2020.23 250.698H-2123.26ZM-1996.32 250.698L-1735.75 215.095H-1651.2L-1896.09 250.425L-1896.07 250.698H-1996.32ZM-1875.33 250.698L-1628.54 215.095H-1536.13L-1767.66 250.698H-1875.33ZM-1746.37 250.698L-1514.84 215.095H-1422.87L-1639.55 250.698H-1746.37ZM-1619.6 250.698L-1402.93 215.095H-1312.92L-1515.21 250.65L-1515.2 250.698H-1619.6ZM-1496.81 250.698L-1294.24 215.095H-1200.11L-1387.92 250.698H-1496.81ZM-1370.57 250.698L-1182.76 215.095H-1076.27L-1246.47 250.698H-1370.57ZM-1230.69 250.698L-1060.49 215.095H-974.836L-1133.46 250.698H-1230.69ZM-1118.72 250.698L-960.096 215.095H-861.495L-1005.31 250.698H-1118.72ZM-991.893 250.698L-848.073 215.095H-749.899L-877.928 250.698H-991.893ZM-865.904 250.698L-737.874 215.095H-639.928L-753.196 250.467L-753.154 250.698H-865.904ZM-743.145 250.698L-629.136 215.095H-526.744L-626.03 250.698H-743.145ZM-616.519 250.698L-517.233 215.095H-411.828L-497.782 250.698H-616.519ZM-489.333 250.698L-403.379 215.095H-297.697L-368.618 250.698H-489.333ZM-361.417 250.698L-290.496 215.095H-187.042L-242.118 250.698H-361.417ZM-236.174 250.698L-181.098 215.095H-76.4248L-115.681 250.698H-236.174ZM-110.883 250.698L-71.6274 215.095H34.1934L10.78 250.698H-110.883ZM14.6384 250.698L38.0518 215.095H144.794L137.221 250.698H14.6384ZM140.531 250.698L148.104 215.095H255.432L263.703 250.698H140.531ZM267.026 250.698L258.755 215.095H365.293L389.414 250.698H267.026ZM392.94 250.156L369.187 215.095H475.926L515.868 250.698H392.298L392.94 250.156Z" fill="url(#paint1_linear_1080_658)"/>
<path d="M159.534 161.974L20.814 255.837H381.188L241.979 161.974H284.983L201.011 140.599L116.021 161.974H159.534Z" fill="white"/>
<path d="M116.353 180.163V161.946H159.88L132.72 180.163H116.353Z" fill="#E7E7E7"/>
<path d="M285.31 180.163V161.946H241.783L268.942 180.163H285.31Z" fill="#E7E7E7"/>
<g opacity="0.1" filter="url(#filter0_f_1080_658)">
<path fill-rule="evenodd" clip-rule="evenodd" d="M35.9808 71.9622C37.118 70.7984 38.978 70.7984 40.1146 71.9622L50.5069 82.5961C51.6429 83.7587 51.6429 85.6635 50.5069 86.8273L43.2384 94.2644C42.7068 94.8084 41.9721 95.1446 41.1614 95.1446H34.9353C34.1967 95.1446 33.5227 94.866 33.0056 94.4062L25.5942 86.8215C24.4582 85.6583 24.4582 83.7548 25.5942 82.591L35.9808 71.9622ZM39.8254 91.3752L38.7888 92.436C38.7128 92.5138 38.6078 92.5617 38.492 92.5617H37.604C37.4984 92.5617 37.4028 92.5222 37.3281 92.4561L36.2712 91.3739C36.1099 91.2087 36.1099 90.9374 36.2712 90.7709L37.7528 89.2547C37.9154 89.0883 38.1812 89.0883 38.3426 89.2547L39.8254 90.7716C39.9881 90.9374 39.9881 91.2087 39.8254 91.3752ZM39.8254 85.0132L35.6802 89.2554C35.6036 89.3331 35.4991 89.381 35.384 89.381H34.4954C34.3903 89.381 34.2935 89.3415 34.2201 89.2755L33.1626 88.1939C33.0006 88.0274 33.0006 87.7554 33.1626 87.5902L37.7528 82.8928C37.9154 82.727 38.1812 82.727 38.3432 82.8928L39.8254 84.4096C39.9881 84.5754 39.9881 84.8474 39.8254 85.0132ZM39.8254 78.6513L32.5721 86.0741C32.4949 86.1518 32.3905 86.1997 32.2753 86.1997H31.3874C31.2824 86.1997 31.1855 86.1602 31.1121 86.0942L30.054 85.0119C29.892 84.8468 29.892 84.5747 30.054 84.4083L37.7528 76.5302C37.9154 76.3637 38.1799 76.3637 38.3426 76.5302L39.8254 78.0476C39.9881 78.2134 39.9881 78.4855 39.8254 78.6513Z" fill="#667085"/>
</g>
<g opacity="0.4" filter="url(#filter1_f_1080_658)">
<path fill-rule="evenodd" clip-rule="evenodd" d="M103.66 95.1445V91.1695H121.585V95.1445H103.66ZM117.778 75.2695H107.466L112.623 82.3914L117.778 75.2695ZM125.569 71.2945L112.623 89.182L99.6763 71.2945H125.569Z" fill="#667085"/>
</g>
<path opacity="0.1" d="M354.712 94.8417C362.909 94.8417 369.555 88.2195 369.555 80.0505C369.555 71.8815 362.909 65.2592 354.712 65.2592C346.514 65.2592 339.869 71.8815 339.869 80.0505C339.869 88.2195 346.514 94.8417 354.712 94.8417Z" fill="#667085"/>
<g opacity="0.4" filter="url(#filter2_f_1080_658)">
<path d="M279.513 65.8079L289.113 71.1984C290.453 71.9506 291.282 73.3614 291.282 74.8907V85.5134C291.282 87.0426 290.453 88.4534 289.113 89.2056L279.513 94.5961C278.211 95.3274 276.618 95.3274 275.316 94.5961L265.716 89.2056C264.376 88.4534 263.548 87.0426 263.548 85.5134V74.8907C263.548 73.3614 264.376 71.9506 265.716 71.1984L275.316 65.8079C276.618 65.0766 278.211 65.0766 279.513 65.8079ZM265.148 74.9337V85.5134C265.148 86.4627 265.663 87.3402 266.499 87.8095L275.963 93.1233C276.085 93.1709 276.216 93.1955 276.348 93.1955C276.937 93.1955 277.415 92.7176 277.415 92.1282V83.5768C277.415 82.1832 276.639 80.9054 275.404 80.2625L274.699 79.896C274.533 79.8252 274.369 79.7477 274.208 79.6633L265.148 74.9337ZM275.073 78.717C276.774 79.6047 278.06 79.6047 279.761 78.717L288.952 73.5541C288.725 73.0356 288.333 72.5932 287.819 72.3048L278.73 67.2041C277.914 66.7459 276.915 66.7459 276.099 67.2041L267.027 72.3048C266.514 72.5932 266.121 73.0356 265.895 73.5541L275.073 78.717ZM277.415 68.9951C279.415 68.9951 281.047 69.9786 281.144 71.2145L281.148 73.3311C281.148 74.6206 279.477 75.6659 277.415 75.6659C275.353 75.6659 273.681 74.6206 273.681 73.3311V71.2145C273.782 69.9786 275.415 68.9951 277.415 68.9951ZM277.415 72.7307C279.147 72.7307 280.551 72.0283 280.551 71.1618C280.551 70.2953 279.147 69.5928 277.415 69.5928C275.683 69.5928 274.279 70.2953 274.279 71.1618C274.279 72.0283 275.683 72.7307 277.415 72.7307Z" fill="#667085"/>
</g>
<g filter="url(#filter3_d_1080_658)">
<circle cx="201.001" cy="69.2107" r="37.7102" fill="white"/>
</g>
<path fill-rule="evenodd" clip-rule="evenodd" d="M176.157 70.6659C176.157 85.495 185.878 95.1445 201.558 95.1445C216.387 95.1445 225.824 87.7654 225.824 75.7036C225.824 75.1158 225.347 74.6393 224.759 74.6393H215.039C214.451 74.6393 213.975 75.1158 213.975 75.7036C213.975 81.9473 210.427 84.9273 201.771 84.9273C191.341 84.9273 186.403 81.3378 186.403 70.7659C186.403 60.194 191.341 56.4046 201.771 56.4046C210.427 56.4046 213.975 59.3845 213.975 65.6283C213.975 66.2161 214.451 66.6926 215.039 66.6926H224.759C225.347 66.6926 225.824 66.2161 225.824 65.6283C225.824 53.5665 216.316 46.1874 201.558 46.1874C185.878 46.1874 176.157 55.8369 176.157 70.6659Z" fill="#294F74"/>
<path d="M194.002 70.6658C194.002 65.5117 195.904 63.713 200.989 63.713C206.074 63.713 207.977 65.5117 207.977 70.6658C207.977 75.82 206.074 77.6187 200.989 77.6187C195.904 77.6187 194.002 75.82 194.002 70.6658Z" fill="#294F74"/>
</g>
<defs>
<filter id="filter0_f_1080_658" x="20.5409" y="66.888" width="35.0193" height="32.4578" filterUnits="userSpaceOnUse" color-interpolation-filters="sRGB">
<feFlood flood-opacity="0" result="BackgroundImageFix"/>
<feBlend mode="normal" in="SourceGraphic" in2="BackgroundImageFix" result="shape"/>
<feGaussianBlur stdDeviation="2.10065" result="effect1_foregroundBlur_1080_658"/>
</filter>
<filter id="filter1_f_1080_658" x="95.475" y="67.0932" width="34.2952" height="32.2526" filterUnits="userSpaceOnUse" color-interpolation-filters="sRGB">
<feFlood flood-opacity="0" result="BackgroundImageFix"/>
<feBlend mode="normal" in="SourceGraphic" in2="BackgroundImageFix" result="shape"/>
<feGaussianBlur stdDeviation="2.10065" result="effect1_foregroundBlur_1080_658"/>
</filter>
<filter id="filter2_f_1080_658" x="259.347" y="61.0582" width="36.1363" height="38.2877" filterUnits="userSpaceOnUse" color-interpolation-filters="sRGB">
<feFlood flood-opacity="0" result="BackgroundImageFix"/>
<feBlend mode="normal" in="SourceGraphic" in2="BackgroundImageFix" result="shape"/>
<feGaussianBlur stdDeviation="2.10065" result="effect1_foregroundBlur_1080_658"/>
</filter>
<filter id="filter3_d_1080_658" x="155.186" y="27.5964" width="91.6312" height="91.6312" filterUnits="userSpaceOnUse" color-interpolation-filters="sRGB">
<feFlood flood-opacity="0" result="BackgroundImageFix"/>
<feColorMatrix in="SourceAlpha" type="matrix" values="0 0 0 0 0 0 0 0 0 0 0 0 0 0 0 0 0 0 127 0" result="hardAlpha"/>
<feOffset dy="4.20131"/>
<feGaussianBlur stdDeviation="4.0527"/>
<feComposite in2="hardAlpha" operator="out"/>
<feColorMatrix type="matrix" values="0 0 0 0 0 0 0 0 0 0 0 0 0 0 0 0 0 0 0.2 0"/>
<feBlend mode="normal" in2="BackgroundImageFix" result="effect1_dropShadow_1080_658"/>
<feBlend mode="normal" in="SourceGraphic" in2="effect1_dropShadow_1080_658" result="shape"/>
</filter>
<linearGradient id="paint0_linear_1080_658" x1="201.5" y1="0.361084" x2="201.5" y2="247.361" gradientUnits="userSpaceOnUse">
<stop stop-color="white"/>
<stop offset="1" stop-color="#F4F4F4"/>
</linearGradient>
<linearGradient id="paint1_linear_1080_658" x1="201" y1="54.2347" x2="201" y2="254.839" gradientUnits="userSpaceOnUse">
<stop stop-color="#DADADA" stop-opacity="0"/>
<stop offset="1" stop-color="#D6D6D6"/>
</linearGradient>
<clipPath id="clip0_1080_658">
<path d="M0 8.7637C0 4.12307 3.76198 0.361084 8.40261 0.361084H394.597C399.238 0.361084 403 4.12306 403 8.7637V247.361H0V8.7637Z" fill="white"/>
</clipPath>
</defs>
</svg>
