<svg width="403" height="248" viewBox="0 0 403 248" fill="none" xmlns="http://www.w3.org/2000/svg">
<g clip-path="url(#clip0_1080_924)">
<rect y="0.361084" width="403" height="247" rx="16" fill="#F9FAFB"/>
<g clip-path="url(#clip1_1080_924)">
<path d="M-5.54419 8.6636C-5.54419 4.07825 -1.82702 0.361084 2.75833 0.361084H400.241C404.827 0.361084 408.544 4.07825 408.544 8.6636V247.361H-5.54419V8.6636Z" fill="url(#paint0_linear_1080_924)"/>
<path fill-rule="evenodd" clip-rule="evenodd" d="M637.786 243.27L582.444 208.091H477.937L516.187 242.185L515.411 243.27H637.786ZM541.934 178.562L583.349 204.888H682.827L630.292 178.562H541.934ZM536.896 175.359L498.725 151.096L575.48 151.096L623.901 175.359H536.896ZM462.4 128.005L493.686 147.893L569.089 147.893L529.402 128.005L462.4 128.005ZM457.361 124.803L432.952 109.286L492.046 109.286L523.01 124.803L457.361 124.803ZM403.496 90.5622L427.913 106.083L485.655 106.083L454.681 90.5622L403.496 90.5622ZM398.457 87.3594L374.047 71.8431L417.325 71.8431L448.289 87.3594L398.457 87.3594ZM344.591 53.119L369.009 68.6403L410.934 68.6402L379.96 53.119L344.591 53.119ZM339.552 49.9162L338.342 49.1466L337.949 49.9162L-169.194 49.9162L-169.197 49.8966L-169.268 49.9162L-302.668 49.9162L-302.71 49.5666L-304.381 49.9162L-673.091 49.9163V50.4081L-821.903 68.6404H-825.072V69.0286L-974.689 87.3595H-976.718V87.608L-1127.52 106.084H-1130.67V106.47L-1280.3 124.803H-1282.65V125.091L-1468.77 147.893H-1472.02V148.291L-1692.95 175.359H-1693.81V175.465L-1933.96 204.888H-1939.38V205.552L-2247.23 243.27H-2247.43V243.294L-2247.48 243.3L-2247.43 244.055V246.473H-2247.26L-2247.26 246.495L-2247.07 246.473H-2121.64L-2121.63 246.702L-2119.85 246.473H-1996.04L-1996.01 246.871L-1993.09 246.473H-1745.24L-1745.22 246.736L-1743.51 246.473H-1619.62L-1619.58 246.912L-1616.91 246.473H-1368.27L-1368.27 246.477L-1368.25 246.473H-1229.57L-1229.54 246.701L-1228.45 246.473H-1120.19L-1120.1 247.22L-1116.77 246.473H-993.127L-993.023 247.191L-990.121 246.473H-866.117L-866.035 246.98L-864.212 246.473H-615.376L-615.365 246.527L-615.213 246.473H-489.871L-489.686 247.029L-488.342 246.473H-362.726L-362.368 247.361L-360.598 246.473H-237.115L-236.689 247.293L-235.421 246.473H-111.152L-110.773 246.993L-110.199 246.473H889.958L890.956 246.888L891.056 246.473H1015.78L1016.34 246.671L1016.38 246.473H1140.48L1141.59 246.816L1141.65 246.473H1265.81L1267.07 246.82L1267.12 246.473H1392.01L1392.54 246.603L1392.56 246.473H1516.41L1518.36 246.912L1518.42 246.473H1643.78L1644.1 246.539L1644.11 246.473H1768.69L1769.73 246.671L1769.76 246.473H1895.46L1895.53 246.484L1895.53 246.473H2524.1L2524.52 246.529L2524.53 246.473H2649.89L2650.25 246.518L2650.25 246.473H2650.48V243.344L2650.48 243.324L2650.48 243.27H2650.06L2350.97 205.562V204.888H2345.62L2112.49 175.496V175.359H2111.41L1710.47 124.81V124.802H1710.4L1116.53 49.9296V49.9161H1116.42L1115.38 49.7851L1115.37 49.9161L1070.35 49.9161L1069.45 49.7955L1069.44 49.9161L978.522 49.9161L977.599 49.7907L977.589 49.9161L932.296 49.9161L931.675 49.8265L931.667 49.9161L886.847 49.9161L885.774 49.7519L885.759 49.9161L840.971 49.9161L839.85 49.7328L839.832 49.9161L794.589 49.9161L793.923 49.7991L793.911 49.9161L748.544 49.9161L748.013 49.8155L748.002 49.9161L702.381 49.9161L702.094 49.8573L702.087 49.9161L656.737 49.9161L656.195 49.7943L656.179 49.9161L610.849 49.9161L610.287 49.777L610.267 49.9161L564.881 49.9161L564.39 49.7809L564.368 49.9161L518.914 49.9161L518.48 49.7812L518.456 49.9161L472.945 49.9161L472.601 49.7939L472.576 49.9161L426.323 49.9161L426.263 49.891L426.257 49.9161L380.693 49.9161L379.923 49.5299L379.767 49.9161L339.552 49.9162ZM425.785 53.119L387.085 53.119L418.059 68.6402L463.046 68.6402L425.785 53.119ZM434.012 53.119L471.273 68.6402L516.095 68.6402L472.482 53.119L434.012 53.119ZM518.509 53.119L481.945 53.119L525.557 68.6402L568.437 68.6402L518.509 53.119ZM529.217 53.119L579.145 68.6402L620.815 68.6402L564.52 53.119L529.217 53.119ZM576.498 53.119L632.792 68.6402L673.258 68.6402L610.525 53.119L576.498 53.119ZM623.795 53.119L686.527 68.6402L725.474 68.6402L656.442 53.119L623.795 53.119ZM670.982 53.119L740.014 68.6402L777.702 68.6402L702.111 53.119L670.982 53.119ZM717.979 53.119L793.571 68.6402L830.206 68.6402L748.295 53.119L717.979 53.119ZM765.447 53.119L847.357 68.6402L882.748 68.6402L794.358 53.119L765.447 53.119ZM812.829 53.119L901.219 68.6402L935.675 68.6402L840.755 53.119L812.829 53.119ZM860.558 53.119L955.478 68.6402L988.087 68.6402L886.645 53.119L860.558 53.119ZM907.78 53.119L1009.22 68.6402L1039.79 68.6402L932.106 53.119L907.78 53.119ZM954.516 53.119L1062.2 68.6402L1092.69 68.6402L978.344 53.119L954.516 53.119ZM1002.12 53.119L1116.47 68.6402L1186.89 68.6402L1070.18 53.119L1002.12 53.119ZM1094.44 53.119L1211.15 68.6402L1239.37 68.6402L1116.25 53.119L1094.44 53.119ZM-671.29 53.1192L-671.27 53.4077L-795.599 68.6404L-768.943 68.6404L-648.858 53.1192L-671.29 53.1192ZM-623.919 53.1192L-623.919 53.1207L-743.992 68.6404L-715.181 68.6404L-601.584 53.1192L-623.919 53.1192ZM-577.966 53.1191V53.1197L-691.56 68.6404L-662.022 68.6404L-554.435 53.1191L-577.966 53.1191ZM-532.043 53.1191L-639.63 68.6404L-608.066 68.6404L-507.129 53.1191L-532.043 53.1191ZM-486.098 53.1191L-587.035 68.6404L-554.337 68.6404L-459.875 53.1191L-486.098 53.1191ZM-440.166 53.1191L-534.628 68.6404L-500.989 68.6404L-412.681 53.1191L-440.166 53.1191ZM-394.227 53.1191L-482.535 68.6404L-447.31 68.6403L-365.434 53.1191L-394.227 53.1191ZM-348.289 53.1191L-430.165 68.6403L-393.894 68.6403L-319.693 53.1191L-348.289 53.1191ZM-304.107 53.1191L-378.307 68.6403L-339.035 68.6403L-269.883 53.1191L-304.107 53.1191ZM-256.349 53.1191L-256.319 53.3437L-324.471 68.6403L-285.021 68.6403L-222.323 53.1191L-256.349 53.1191ZM-210.396 53.1191L-210.35 53.4383L-271.759 68.6403L-236.6 68.6403L-180.785 53.1191L-210.396 53.1191ZM-168.904 53.1191L-224.719 68.6403L-182.855 68.6403L-133.152 53.1191L-168.904 53.1191ZM-122.488 53.1191L-172.191 68.6403L-128.69 68.6403L-85.4058 53.1191L-122.488 53.1191ZM-76.5388 53.1191L-76.502 53.2962L-119.292 68.6403L-67.3623 68.6403L-29.8904 53.1191L-76.5388 53.1191ZM-22.6658 53.1191L-22.5298 53.5281L-59.0139 68.6403L-13.4719 68.6403L17.4465 53.1191L-22.6658 53.1191ZM22.7961 53.1191L23.0933 53.8561L-6.35693 68.6403L33.8035 68.6403L57.814 53.1191L22.7961 53.1191ZM62.4285 53.1191L62.7446 53.7282L39.6765 68.6403L81.1379 68.6403L98.2515 53.1191L62.4285 53.1191ZM102.221 53.1191L102.528 53.5398L85.8779 68.6403L128.386 68.6403L138.593 53.1191L102.221 53.1191ZM142.406 53.1191L132.198 68.6403L175.625 68.6403L178.927 53.1191L142.406 53.1191ZM182.197 53.1191L178.896 68.6403L222.886 68.6403L219.28 53.1191L182.197 53.1191ZM222.563 53.1191L226.169 68.6403L269.359 68.6403L258.844 53.1191L222.563 53.1191ZM262.691 53.1191L273.207 68.6403L316.705 68.6403L299.292 53.119L262.691 53.1191ZM304.078 53.119L338.647 53.119L363.065 68.6403L321.491 68.6403L304.078 53.119ZM455.415 87.3594L424.451 71.8431L470.735 71.8431L507.984 87.3593L455.415 87.3594ZM478.962 71.8431L525.095 71.8431L568.694 87.3593L516.211 87.3593L478.962 71.8431ZM578.156 87.3593L534.557 71.8431L578.74 71.8431L628.652 87.3593L578.156 87.3593ZM639.36 87.3593L589.448 71.8431L632.432 71.8431L688.709 87.3593L639.36 87.3593ZM700.686 87.3593L644.409 71.8431L686.203 71.8431L748.916 87.3593L700.686 87.3593ZM762.185 87.3593L699.473 71.8431L739.72 71.8431L808.73 87.3593L762.185 87.3593ZM823.27 87.3593L754.26 71.8431L793.301 71.8431L868.868 87.3593L823.27 87.3593ZM884.736 87.3593L809.169 71.8431L847.108 71.8431L928.992 87.3593L884.736 87.3593ZM946.144 87.3593L864.26 71.8431L900.988 71.8431L989.349 87.3593L946.144 87.3593ZM1007.82 87.3593L919.459 71.8431L955.262 71.8431L1050.15 87.3593L1007.82 87.3593ZM1069.95 87.3593L975.065 71.8431L1009.02 71.8431L1110.43 87.3593L1069.95 87.3593ZM1131.56 87.3593L1030.16 71.8431L1062.01 71.8431L1169.65 87.3593L1131.56 87.3593ZM1192.06 87.3593L1084.42 71.8431L1116.29 71.8431L1230.61 87.3593L1192.06 87.3593ZM1254.38 87.3593L1140.07 71.8431L1210.97 71.8431L1327.65 87.3593L1254.38 87.3593ZM1351.91 87.3592L1235.23 71.843L1264.73 71.843V71.8384L1387.84 87.3592L1351.91 87.3592ZM-948.386 87.3595L-821.742 71.8433L-793.723 71.8433L-913.77 87.3595L-948.386 87.3595ZM-888.82 87.3595L-768.773 71.8433L-738.623 71.8433L-852.184 87.3595L-888.82 87.3595ZM-828.562 87.3595L-715.001 71.8433L-684.223 71.8433L-791.775 87.3595L-828.562 87.3595ZM-769.384 87.3595L-661.832 71.8433L-628.895 71.8433L-729.799 87.3595L-769.384 87.3595ZM-708.768 87.3595L-607.864 71.8433L-573.829 71.8433L-668.26 87.3595L-708.768 87.3595ZM-648.552 87.3595L-554.12 71.8433L-519.211 71.8433L-607.49 87.3595L-648.552 87.3595ZM-589.036 87.3595L-500.757 71.8432L-464.205 71.8432L-546.055 87.3595L-589.036 87.3595ZM-528.91 87.3595L-447.061 71.8432L-409.206 71.8432L-483.383 87.3595L-528.91 87.3595ZM-467.796 87.3595L-393.619 71.8432L-353.305 71.8432L-422.434 87.3595L-467.796 87.3595ZM-407.87 87.3595L-338.741 71.8432L-297.96 71.8432L-360.638 87.3594L-407.87 87.3595ZM-347.376 87.3594L-284.697 71.8432L-248.118 71.8432L-303.915 87.3594L-347.376 87.3594ZM-292.034 87.3594L-236.237 71.8432L-193.111 71.8432L-242.798 87.3594L-292.034 87.3594ZM-232.134 87.3594L-182.447 71.8432L-137.622 71.8432L-180.892 87.3594L-232.134 87.3594ZM-171.494 87.3594L-128.224 71.8432L-75.095 71.8432L-112.555 87.3594L-171.494 87.3594ZM-104.206 87.3594L-66.7466 71.8432L-19.8521 71.8432L-50.7603 87.3594L-104.206 87.3594ZM-43.6453 87.3594L-12.7371 71.8432L28.8486 71.8432L4.84595 87.3594L-43.6453 87.3594ZM10.719 87.3594L34.7217 71.8432L77.6064 71.8432L60.4983 87.3594L10.719 87.3594ZM65.2383 87.3594L82.3464 71.8432L126.28 71.8432L116.076 87.3594L65.2383 87.3594ZM119.888 87.3594L130.092 71.8432L174.944 71.8432L171.644 87.3594L119.888 87.3594ZM174.914 87.3594L178.215 71.8432L223.63 71.8432L227.235 87.3594L174.914 87.3594ZM230.518 87.3594L226.913 71.8432L271.529 71.8432L282.042 87.3594L230.518 87.3594ZM285.889 87.3594L275.376 71.8432L320.298 71.8432L337.705 87.3594L285.889 87.3594ZM342.491 87.3594L325.084 71.8432L368.103 71.8431L392.513 87.3594L342.491 87.3594ZM461.806 90.5622L515.673 90.5622L552.934 106.083L492.78 106.083L461.806 90.5622ZM523.9 90.5622L561.161 106.083L621.306 106.083L577.693 90.5622L523.9 90.5622ZM587.155 90.5622L630.768 106.083L688.883 106.083L638.955 90.5622L587.155 90.5622ZM649.663 90.5622L699.591 106.083L756.621 106.083L700.325 90.5622L649.663 90.5622ZM712.303 90.5622L768.598 106.083L824.594 106.083L761.861 90.5622L712.303 90.5622ZM775.131 90.5622L837.864 106.083L892.008 106.083L822.975 90.5622L775.131 90.5622ZM837.515 90.5622L906.548 106.083L960.058 106.083L884.466 90.5622L837.515 90.5622ZM900.335 90.5622L975.927 106.083L1027.81 106.083L945.895 90.5622L900.335 90.5622ZM963.047 90.5622L1044.96 106.083L1095.98 106.083L1007.59 90.5622L963.047 90.5622ZM1026.06 90.5622L1114.45 106.083L1164.66 106.083L1069.74 90.5622L1026.06 90.5622ZM1089.54 90.5622L1184.46 106.083L1232.81 106.083L1131.36 90.5622L1089.54 90.5622ZM1152.5 90.5622L1253.94 106.083L1299.55 106.083L1191.87 90.5622L1152.5 90.5622ZM1214.28 90.5622L1321.96 106.083L1368.56 106.083L1254.2 90.5622L1214.28 90.5622ZM1277.98 90.5621L1392.33 106.083L1468.44 106.083L1351.73 90.5621L1277.98 90.5621ZM1375.99 90.5621L1492.7 106.083L1536.36 106.083L1413.24 90.5621L1375.99 90.5621ZM-974.528 90.5624L-1101.21 106.084L-1058.64 106.084L-938.551 90.5624L-974.528 90.5624ZM-913.6 90.5624L-1033.69 106.084L-989.223 106.084L-875.625 90.5624L-913.6 90.5624ZM-852.004 90.5624L-965.601 106.084L-921.564 106.084L-813.976 90.5624L-852.004 90.5624ZM-791.585 90.5624L-899.172 106.084L-851.566 106.084L-750.628 90.5624L-791.585 90.5624ZM-729.597 90.5624L-830.534 106.084L-782.215 106.084L-687.753 90.5624L-729.597 90.5624ZM-668.044 90.5624L-762.506 106.084L-714.021 106.084L-625.713 90.5624L-668.044 90.5624ZM-607.259 90.5624L-695.567 106.084L-644.827 106.084L-562.951 90.5624L-607.259 90.5624ZM-545.806 90.5624L-627.682 106.084L-572.895 106.084L-498.694 90.5624L-545.806 90.5624ZM-483.108 90.5623L-557.309 106.084L-505.856 106.084L-436.704 90.5623L-483.108 90.5623ZM-422.14 90.5623L-491.292 106.084L-436.275 106.084L-373.577 90.5623L-422.14 90.5623ZM-360.314 90.5623L-423.013 106.084L-371.248 106.084L-315.433 90.5623L-360.314 90.5623ZM-303.552 90.5623L-359.367 106.084L-302.757 106.084L-253.054 90.5623L-303.552 90.5623ZM-242.391 90.5623L-292.094 106.084L-233.108 106.084L-189.824 90.5623L-242.391 90.5623ZM-180.426 90.5623L-223.71 106.084L-157.759 106.084L-120.287 90.5623L-180.426 90.5623ZM-111.939 90.5623L-149.411 106.084L-88.0586 106.084L-57.1404 90.5623L-111.939 90.5623ZM-50.0254 90.5623L-80.9436 106.084L-24.1194 106.084L-0.108887 90.5623L-50.0254 90.5623ZM5.76416 90.5623L-18.2463 106.084L39.853 106.084L56.9668 90.5623L5.76416 90.5623ZM61.7068 90.5623L44.5933 106.084L103.762 106.084L113.969 90.5623L61.7068 90.5623ZM117.782 90.5623L107.575 106.084L167.661 106.084L170.962 90.5623L117.782 90.5623ZM174.233 90.5623L170.932 106.084L231.585 106.084L227.979 90.5623L174.233 90.5623ZM231.262 90.5623L234.868 106.084L294.727 106.084L284.211 90.5623L231.262 90.5623ZM288.059 90.5623L298.574 106.084L358.711 106.083L341.299 90.5623L288.059 90.5623ZM346.084 90.5623L363.497 106.083L421.969 106.083L397.552 90.5622L346.084 90.5623ZM530.135 124.803L499.172 109.286L560.623 109.286L597.872 124.803L530.135 124.803ZM606.099 124.803L568.85 109.286L630.306 109.286L673.905 124.803L606.099 124.803ZM683.366 124.803L639.768 109.286L699.186 109.286L749.098 124.803L683.366 124.803ZM759.806 124.803L709.894 109.286L768.237 109.286L824.514 124.803L759.806 124.803ZM836.491 124.803L780.215 109.286L837.539 109.286L900.252 124.803L836.491 124.803ZM913.521 124.803L850.809 109.286L906.253 109.286L975.263 124.803L913.521 124.803ZM989.803 124.803L920.793 109.286L975.657 109.286L1051.22 124.803L989.803 124.803ZM1067.09 124.803L991.525 109.286L1044.71 109.286L1126.59 124.803L1067.09 124.803ZM1143.74 124.803L1061.86 109.286L1114.22 109.286L1202.58 124.802L1143.74 124.803ZM1221.05 124.802L1132.69 109.286L1184.25 109.286L1279.13 124.802L1221.05 124.802ZM1298.94 124.802L1204.05 109.286L1253.74 109.286L1355.15 124.802L1298.94 124.802ZM1376.28 124.802L1274.87 109.286L1321.77 109.286L1429.42 124.802L1376.28 124.802ZM1451.83 124.802L1344.18 109.286L1392.15 109.286L1506.47 124.802L1451.83 124.802ZM1530.24 124.802L1415.93 109.286L1492.53 109.286L1609.2 124.802L1530.24 124.802ZM1633.46 124.802L1516.79 109.286L1561.7 109.286V109.278L1684.83 124.802L1633.46 124.802ZM-1254 124.803L-1127.36 109.287L-1083.42 109.287L-1203.46 124.803L-1254 124.803ZM-1178.51 124.803L-1058.47 109.287L-1012.66 109.287L-1126.23 124.803H-1178.51ZM-1102.6 124.803L-989.043 109.287L-943.765 109.287L-1051.32 124.803H-1102.6ZM-1028.93 124.803L-921.374 109.287L-872.395 109.287L-973.299 124.803L-1028.93 124.803ZM-952.268 124.803L-851.363 109.287L-801.708 109.287L-896.139 124.803L-952.268 124.803ZM-876.43 124.803L-781.999 109.287L-732.244 109.287L-820.523 124.803L-876.43 124.803ZM-802.069 124.803L-713.79 109.287L-661.722 109.287L-743.572 124.803L-802.069 124.803ZM-726.427 124.803L-644.578 109.287L-588.207 109.286L-662.384 124.803L-726.427 124.803ZM-646.797 124.803L-572.62 109.286L-520.126 109.286L-589.255 124.803H-646.797ZM-574.691 124.803L-505.562 109.286L-449.214 109.286L-511.892 124.803L-574.691 124.803ZM-498.63 124.803L-435.951 109.286L-382.766 109.286L-438.563 124.803L-498.63 124.803ZM-426.682 124.803L-370.885 109.286L-313.014 109.286L-362.701 124.803L-426.682 124.803ZM-352.037 124.803L-302.35 109.286L-242.04 109.286L-285.31 124.803L-352.037 124.803ZM-275.912 124.803L-232.642 109.286L-165.491 109.286L-202.951 124.803L-275.912 124.803ZM-194.603 124.803L-157.143 109.286L-94.4387 109.286L-125.347 124.803L-194.603 124.803ZM-118.232 124.803L-87.3237 109.286L-29.0742 109.286L-53.0769 124.803H-118.232ZM-47.2039 124.803L-23.2012 109.286L36.3215 109.286L19.2134 124.803L-47.2039 124.803ZM23.9536 124.803L41.0618 109.286L101.656 109.286L91.4524 124.803L23.9536 124.803ZM95.2649 124.803L105.469 109.286L166.98 109.286L163.679 124.803L95.2649 124.803ZM166.95 124.803L170.25 109.286L232.329 109.286L235.934 124.803L166.95 124.803ZM239.217 124.803L235.612 109.286L296.897 109.286L307.409 124.803L239.217 124.803ZM311.256 124.803L300.744 109.286L362.305 109.286L379.712 124.803L311.256 124.803ZM384.498 124.803L367.091 109.286L427.008 109.286L451.417 124.803L384.498 124.803ZM536.527 128.005L576.214 147.893L653.303 147.893L605.561 128.005L536.527 128.005ZM682.904 128.005L613.788 128.005L661.53 147.893L738.785 147.893L682.904 128.005ZM692.366 128.005L748.247 147.893L823.374 147.893L759.401 128.005L692.366 128.005ZM770.109 128.005L834.082 147.893L908.262 147.893L836.131 128.005L770.109 128.005ZM848.108 128.005L920.239 147.893L993.577 147.893L913.197 128.005L848.108 128.005ZM926.467 128.005L1006.85 147.893L1077.96 147.893L989.509 128.005L926.467 128.005ZM1004.05 128.005L1092.5 147.893L1163.68 147.893L1066.82 128.005L1004.05 128.005ZM1082.69 128.005L1179.55 147.893L1248.45 147.893L1143.5 128.005H1082.69ZM1160.65 128.005L1265.6 147.893L1334.07 147.893L1220.82 128.005L1160.65 128.005ZM1239.29 128.005L1352.54 147.893L1420.34 147.893L1298.72 128.005L1239.29 128.005ZM1318.52 128.005L1440.15 147.893L1506.06 147.893L1376.08 128.005L1318.52 128.005ZM1397.22 128.005L1527.19 147.893H1589.6L1451.64 128.005L1397.22 128.005ZM1474.05 128.005L1612.02 147.893L1676.58 147.893L1530.06 128.005L1474.05 128.005ZM1553.84 128.005L1700.36 147.893L1782.83 147.893L1633.29 128.005L1553.84 128.005ZM1657.55 128.005L1807.09 147.893L1867.98 147.893L1710.24 128.005L1657.55 128.005ZM-1280.14 128.006L-1442.46 147.893L-1382.11 147.893L-1228.24 128.006L-1280.14 128.006ZM-1203.29 128.006L-1357.16 147.893L-1295.22 147.893L-1149.67 128.006L-1203.29 128.006ZM-1126.05 128.006L-1271.6 147.893L-1211.37 147.893L-1073.52 128.006L-1126.05 128.006ZM-1051.13 128.006L-1188.98 147.893L-1123.46 147.893L-994.128 128.006L-1051.13 128.006ZM-973.097 128.006L-1102.43 147.893L-1036.67 147.893L-915.632 128.006L-973.097 128.006ZM-895.923 128.006L-1016.96 147.893L-951.894 147.893L-838.745 128.006L-895.923 128.006ZM-820.291 128.006L-933.44 147.893L-865.375 147.893L-760.467 128.006L-820.291 128.006ZM-743.323 128.006L-848.23 147.893L-772.769 147.893L-677.695 128.006L-743.323 128.006ZM-662.109 128.006L-757.182 147.893L-692.13 147.893L-603.525 128.006L-662.109 128.006ZM-588.961 128.006L-677.565 147.893L-605.166 147.893L-524.83 128.006L-588.961 128.006ZM-511.568 128.006L-591.904 147.893L-521.597 147.893L-450.081 128.006L-511.568 128.006ZM-438.199 128.006L-509.715 147.893L-436.641 147.893L-372.957 128.006L-438.199 128.006ZM-362.293 128.006L-425.978 147.893L-349.701 147.893L-294.242 128.006L-362.293 128.006ZM-284.844 128.006L-340.304 147.893L-258.696 147.893L-210.684 128.006L-284.844 128.006ZM-202.336 128.006L-250.348 147.893L-171.343 147.893L-131.727 128.006L-202.336 128.006ZM-124.612 128.006L-164.228 147.893L-88.7961 147.893L-58.0315 128.006L-124.612 128.006ZM-52.1584 128.006L-82.9231 147.893L-6.24585 147.893L15.6819 128.006L-52.1584 128.006ZM20.4221 128.006L-1.50562 147.893L76.2678 147.893L89.3462 128.006L20.4221 128.006ZM93.1587 128.006L80.0803 147.893L158.768 147.893L162.998 128.006L93.1587 128.006ZM166.269 128.006L162.039 147.893L241.298 147.893L236.678 128.006L166.269 128.006ZM239.961 128.006L244.582 147.893L323.053 147.893L309.579 128.005L239.961 128.006ZM313.426 128.005L326.9 147.893L405.616 147.893L383.305 128.005L313.426 128.005ZM388.091 128.005L410.402 147.893L487.742 147.893L456.456 128.005L388.091 128.005ZM660.992 151.096L582.605 151.096L631.026 175.359H719.241L660.992 151.096ZM727.468 175.359L669.219 151.096L747.785 151.096L815.964 175.359H727.468ZM825.426 175.359L757.247 151.096L833.677 151.096L911.728 175.359H825.426ZM922.436 175.359L844.385 151.096L919.878 151.096L1007.88 175.359H922.436ZM1019.86 175.359L931.856 151.096L1006.52 151.096L1104.59 175.359H1019.86ZM1117.86 175.359L1019.79 151.096L1092.21 151.096L1200.12 175.359H1117.86ZM1214.66 175.359L1106.75 151.096L1179.28 151.096L1297.45 175.359H1214.66ZM1313.31 175.359L1195.15 151.096L1265.35 151.096L1393.4 175.359H1313.31ZM1410.55 175.359L1282.5 151.096L1352.31 151.096L1490.49 175.359H1410.55ZM1508.96 175.359L1370.78 151.096L1439.93 151.096L1588.31 175.359H1508.96ZM1608.12 175.359L1459.73 151.096L1526.99 151.096L1685.57 175.359H1608.12ZM1706.71 175.359L1548.13 151.096L1611.83 151.096L1780.16 175.359H1706.71ZM1802.57 175.359L1634.24 151.096L1700.18 151.096L1878.94 175.359H1802.57ZM1902.72 175.359L1723.96 151.096L1806.91 151.096L1989.37 175.359H1902.72ZM2013.62 175.359L1831.17 151.096L1893.38 151.096L2085.84 175.359H2013.62ZM-1666.64 175.359L-1468.6 151.096L-1406.89 151.096L-1594.61 175.359H-1666.64ZM-1569.66 175.359L-1381.94 151.096L-1318.66 151.096L-1496.24 175.359H-1569.66ZM-1472.62 175.359L-1295.04 151.096L-1233.57 151.096L-1401.76 175.359H-1472.62ZM-1379.37 175.359L-1211.18 151.096L-1144.29 151.096L-1302.08 175.359H-1379.37ZM-1281.05 175.359L-1123.26 151.096L-1056.16 151.096L-1203.83 175.359H-1281.05ZM-1184.12 175.359L-1036.45 151.096L-970.116 151.096L-1108.16 175.359H-1184.12ZM-1089.71 175.359L-951.662 151.096L-882.271 151.096L-1010.26 175.359H-1089.71ZM-993.119 175.359L-865.126 151.096L-788.081 151.096L-904.075 175.359H-993.119ZM-888.489 175.359L-772.494 151.096L-706.399 151.096L-814.501 175.359H-888.489ZM-799.937 175.359L-691.835 151.096L-618.104 151.096L-716.119 175.359H-799.937ZM-702.856 175.359L-604.842 151.096L-533.114 151.096L-620.368 175.359H-702.856ZM-608.486 175.359L-521.233 151.096L-446.898 151.096L-524.596 175.359H-608.486ZM-513.933 175.359L-436.234 151.096L-358.633 151.096L-426.297 175.359H-513.933ZM-416.9 175.359L-349.236 151.096L-266.429 151.096L-325.007 175.359H-416.9ZM-316.659 175.359L-258.081 151.096L-177.723 151.096L-226.056 175.359H-316.659ZM-218.941 175.359L-170.608 151.096L-93.751 151.096L-131.286 175.359H-218.941ZM-125.413 175.359L-87.8779 151.096L-9.77734 151.096L-36.5305 175.359H-125.413ZM-31.7903 175.359L-5.03711 151.096L74.1614 151.096L58.2051 175.359H-31.7903ZM62.0176 175.359L77.9739 151.096L158.087 151.096L152.926 175.359H62.0176ZM156.197 175.359L161.357 151.096L242.042 151.096L247.679 175.359H156.197ZM250.963 175.359L245.326 151.096L325.223 151.096L341.661 175.359H250.963ZM345.508 175.359L329.07 151.096L409.209 151.096L436.43 175.359H345.508ZM441.216 175.359L413.995 151.096L492.781 151.096L530.952 175.359H441.216ZM637.417 178.562L689.952 204.888H790.128L726.93 178.562H637.417ZM735.157 178.562L798.355 204.888H898.935L824.963 178.562H735.157ZM834.425 178.562L908.397 204.888H1006.71L922.03 178.562H834.425ZM932.739 178.562L1017.42 204.888H1114.98L1019.5 178.562H932.739ZM1031.48 178.562L1126.96 204.888H1223.94L1117.54 178.562H1031.48ZM1130.81 178.562L1237.21 204.888H1331.45L1214.37 178.562H1130.81ZM1228.91 178.562L1345.99 204.888H1441.26L1313.04 178.562H1228.91ZM1328.91 178.562L1457.12 204.888H1549.23L1410.3 178.562H1328.91ZM1427.45 178.562L1566.38 204.888H1658.65L1508.73 178.562H1427.45ZM1527.2 178.562L1677.12 204.888H1768.9L1607.9 178.562H1527.2ZM1627.7 178.562L1788.7 204.888H1878.56L1706.51 178.562H1627.7ZM1727.64 178.562L1899.7 204.888H1985.01L1802.38 178.562H1727.64ZM1824.79 178.562L2007.42 204.888H2096.49L1902.54 178.562H1824.79ZM1926.32 178.562L2120.27 204.888H2211.4L2013.45 178.562H1926.32ZM2037.71 178.562L2235.66 204.888H2320.05L2111.24 178.562H2037.71ZM-1692.79 178.562L-1907.66 204.888H-1823.07L-1619.39 178.562H-1692.79ZM-1594.44 178.562L-1798.12 204.888H-1712.36L-1519.68 178.562H-1594.44ZM-1496.06 178.562L-1688.73 204.888H-1606.44L-1423.96 178.562H-1496.06ZM-1401.57 178.562L-1584.04 204.888H-1494.11L-1322.91 178.562H-1401.57ZM-1301.88 178.562L-1473.07 204.888H-1383.54L-1223.32 178.562H-1301.88ZM-1203.61 178.562L-1363.83 204.888H-1276.16L-1126.39 178.562H-1203.61ZM-1107.93 178.562L-1257.71 204.888H-1166.03L-1027.16 178.562H-1107.93ZM-1010.01 178.562L-1148.88 204.888H-1045.24L-919.387 178.562H-1010.01ZM-903.801 178.562L-1029.65 204.888H-946.06L-828.771 178.562H-903.801ZM-814.207 178.562L-931.495 204.888H-835.4L-729.057 178.562H-814.207ZM-715.794 178.562L-822.138 204.888H-726.553L-631.885 178.562H-715.794ZM-620.004 178.562L-714.672 204.888H-619.154L-534.853 178.562H-620.004ZM-524.189 178.562L-608.49 204.888H-508.644L-435.229 178.562H-524.189ZM-425.832 178.562L-499.246 204.888H-396.296L-332.74 178.562H-425.832ZM-324.391 178.562L-387.948 204.888H-284.876L-232.436 178.562H-324.391ZM-225.321 178.562L-277.761 204.888H-176.965L-136.24 178.562H-225.321ZM-130.367 178.562L-171.092 204.888H-69.0886L-40.062 178.562H-130.367ZM-35.3218 178.562L-64.3484 204.888H38.7866L56.0989 178.562H-35.3218ZM59.9114 178.562L42.5991 204.888H146.645L152.245 178.562H59.9114ZM155.515 178.562L149.916 204.888H254.539L248.423 178.562H155.515ZM251.707 178.562L257.823 204.888H361.667L343.831 178.562H251.707ZM347.678 178.562L365.514 204.888H469.558L440.024 178.562H347.678ZM444.81 178.562L474.344 204.888H577.405L535.99 178.562H444.81ZM689.219 208.091H588.387L641.514 241.861L640.796 243.27H759.421L689.219 208.091ZM765.807 242.899L696.344 208.091H797.817L882.269 243.27H765.658L765.807 242.899ZM890.496 243.27L806.044 208.091H907.935L1006.78 243.27H890.496ZM1016.24 243.27L917.397 208.091H1017.02L1130.18 243.27H1016.24ZM1140.89 243.27L1027.73 208.091H1126.6L1254.19 243.27H1140.89ZM1266.17 243.27L1138.58 208.091H1236.88L1379.07 243.27H1266.17ZM1392.34 243.27L1250.15 208.091H1345.7L1502.16 243.27H1392.34ZM1516.7 243.27L1360.24 208.091H1456.85L1628.18 243.27H1516.7ZM1644.05 243.27L1472.72 208.091H1566.13L1751.78 243.27H1644.05ZM1768.93 243.27L1583.28 208.091H1676.89L1877.22 243.27H1768.93ZM1895.7 243.27L1695.36 208.091H1788.48L2003.62 243.27H1895.7ZM2021.6 242.971L1808.29 208.091H1899.5L2129.42 243.27H2021.57L2021.6 242.971ZM2147.55 242.811L1920.63 208.091H2007.23L2251.29 243.27H2147.51L2147.55 242.811ZM2273.21 243.199L2029.64 208.091H2120.09L2379.27 243.27H2273.2L2273.21 243.199ZM2399.04 242.726L2143.87 208.091H2235.49L2500.02 243.27H2399L2399.04 242.726ZM2524.28 243.27L2259.75 208.091H2345.46L2624.49 243.27H2524.28ZM-2220.93 243.27L-1933.8 208.091H-1847.85L-2120.02 243.27H-2220.93ZM-2095.07 243.27L-1822.9 208.091H-1735.8L-1993.27 243.27H-2095.07ZM-1969.64 243.27L-1712.18 208.091H-1628.64L-1870.61 242.999L-1870.59 243.27H-1969.64ZM-1850.09 243.27L-1606.25 208.091H-1514.94L-1743.71 243.27H-1850.09ZM-1722.68 243.27L-1493.9 208.091H-1403.03L-1617.13 243.27H-1722.68ZM-1597.42 243.27L-1383.32 208.091H-1294.39L-1494.26 243.222L-1494.26 243.27H-1597.42ZM-1476.08 243.27L-1275.93 208.091H-1182.92L-1368.5 243.27H-1476.08ZM-1351.35 243.27L-1165.78 208.091H-1060.55L-1228.73 243.27H-1351.35ZM-1213.14 243.27L-1044.96 208.091H-960.329L-1117.06 243.27H-1213.14ZM-1102.5 243.27L-945.765 208.091H-848.339L-990.445 243.27H-1102.5ZM-977.183 243.27L-835.076 208.091H-738.071L-864.576 243.27H-977.183ZM-852.694 243.27L-726.19 208.091H-629.411L-741.33 243.041L-741.288 243.27H-852.694ZM-731.398 243.27L-618.747 208.091H-517.575L-615.679 243.27H-731.398ZM-606.281 243.27L-508.178 208.091H-404.028L-488.958 243.27H-606.281ZM-480.61 243.27L-395.68 208.091H-291.256L-361.333 243.27H-480.61ZM-354.218 243.27L-284.142 208.091H-181.919L-236.339 243.27H-354.218ZM-230.466 243.27L-176.046 208.091H-72.6201L-111.408 243.27H-230.466ZM-106.668 243.27L-67.8799 208.091H36.6802L13.5459 243.27H-106.668ZM17.3584 243.27L40.4927 208.091H145.964L138.481 243.27H17.3584ZM141.752 243.27L149.235 208.091H255.283L263.456 243.27H141.752ZM266.74 243.27L258.567 208.091H363.836L387.67 243.27H266.74ZM391.154 242.734L367.684 208.091H473.151L512.617 243.27H390.519L391.154 242.734Z" fill="url(#paint1_linear_1080_924)"/>
<path d="M211.461 132.945H135.906V142.012H204.346L211.461 132.945Z" fill="#C5AE36"/>
<path d="M267.274 117.763V107.567L154.067 205.907V216.739L267.274 117.763Z" fill="#B09D33"/>
<path d="M212.104 65.4976L211.237 55.7763L191.763 108.767H195.928L212.104 65.4976Z" fill="#C5AE36"/>
<path d="M210.627 55.5637L135.381 133.417H210.627L155.124 205.683L267.62 108.087H191.629L210.627 55.5637Z" fill="#CCB435" stroke="white" stroke-width="2.07563"/>
</g>
</g>
<rect x="0.5" y="0.861084" width="402" height="246" rx="15.5" stroke="#F2F4F7"/>
<defs>
<linearGradient id="paint0_linear_1080_924" x1="201.5" y1="0.361084" x2="201.5" y2="247.361" gradientUnits="userSpaceOnUse">
<stop stop-color="white"/>
<stop offset="1" stop-color="#F4F4F4"/>
</linearGradient>
<linearGradient id="paint1_linear_1080_924" x1="201.5" y1="49.1466" x2="201.5" y2="247.361" gradientUnits="userSpaceOnUse">
<stop stop-color="#DADADA" stop-opacity="0"/>
<stop offset="1" stop-color="#D6D6D6"/>
</linearGradient>
<clipPath id="clip0_1080_924">
<rect y="0.361084" width="403" height="247" rx="16" fill="white"/>
</clipPath>
<clipPath id="clip1_1080_924">
<path d="M-5.54419 8.6636C-5.54419 4.07825 -1.82702 0.361084 2.75833 0.361084H400.241C404.827 0.361084 408.544 4.07825 408.544 8.6636V247.361H-5.54419V8.6636Z" fill="white"/>
</clipPath>
</defs>
</svg>
